# xmcd
#
# Track frame offsets:
#	217
#	17927
#	37925
#	56942
#	77347
#	94557
#	111942
#	133092
#	154397
#	176422
#	196397
#
# Disc length: 2961 seconds
# Revision: 3
# Processed by: cddbd v1.5.2PL0 Copyright (c) Steve Scherf et al.
# Submitted via: dBpowerAMP V12.0
#
DISCID=8c0b8f0b
DTITLE=Ann Peebles - Full Time Love
DYEAR=1992
DGENRE=Soul
TTITLE0=Bouncin' Back
TTITLE1=St. Louis Woman (With a Memphis Melody)
TTITLE2=Read me my Rights
TTITLE3=Full Time Lover
TTITLE4=Fear no Evil
TTITLE5=Nobody But You
TTITLE6=Ain't no Business Like Your Business
TTITLE7=I Miss You
TTITLE8=Just You Just me
TTITLE9=He's my Superman
TTITLE10=I Can't Stand The Rain
EXTD=
EXTT0=
EXTT1=
EXTT2=
EXTT3=
EXTT4=
EXTT5=
EXTT6=
EXTT7=
EXTT8=
EXTT9=
EXTT10=
PLAYORDER=
